0
SECTION
2
HEADER
9
$INSUNITS
70
1
9
$ACADVER
1
AC1014
9
$HANDSEED
5
FFFF
0
ENDSEC
0
SECTION
2
TABLES
0
TABLE
2
VPORT
5
8
100
AcDbSymbolTable
0
ENDTAB
0
TABLE
2
LTYPE
5
5
100
AcDbSymbolTable
0
LTYPE
5
14
100
AcDbSymbolTableRecord
100
AcDbLinetypeTableRecord
2
BYBLOCK
70
0
0
LTYPE
5
15
100
AcDbSymbolTableRecord
100
AcDbLinetypeTableRecord
2
BYLAYER
70
0
0
ENDTAB
0
TABLE
2
LAYER
5
2
100
AcDbSymbolTable
70
2
0
LAYER
5
50
100
AcDbSymbolTableRecord
100
AcDbLayerTableRecord
2
0
70
0
6
CONTINUOUS
0
ENDTAB
0
TABLE
2
STYLE
5
3
100
AcDbSymbolTable
70
1
0
STYLE
5
11
100
AcDbSymbolTableRecord
100
AcDbTextStyleTableRecord
2
STANDARD
70
0
0
ENDTAB
0
TABLE
2
VIEW
5
6
100
AcDbSymbolTable
70
0
0
ENDTAB
0
TABLE
2
UCS
5
7
100
AcDbSymbolTable
70
0
0
ENDTAB
0
TABLE
2
APPID
5
9
100
AcDbSymbolTable
70
2
0
APPID
5
12
100
AcDbSymbolTableRecord
100
AcDbRegAppTableRecord
2
ACAD
70
0
0
ENDTAB
0
TABLE
2
DIMSTYLE
5
A
100
AcDbSymbolTable
70
1
0
ENDTAB
0
TABLE
2
BLOCK_RECORD
5
1
100
AcDbSymbolTable
70
1
0
BLOCK_RECORD
5
1F
100
AcDbSymbolTableRecord
100
AcDbBlockTableRecord
2
*MODEL_SPACE
0
BLOCK_RECORD
5
1B
100
AcDbSymbolTableRecord
100
AcDbBlockTableRecord
2
*PAPER_SPACE
0
ENDTAB
0
ENDSEC
0
SECTION
2
BLOCKS
0
BLOCK
5
20
100
AcDbEntity
100
AcDbBlockBegin
2
*MODEL_SPACE
0
ENDBLK
5
21
100
AcDbEntity
100
AcDbBlockEnd
0
BLOCK
5
1C
100
AcDbEntity
100
AcDbBlockBegin
2
*PAPER_SPACE
0
ENDBLK
5
1D
100
AcDbEntity
100
AcDbBlockEnd
0
ENDSEC
0
SECTION
2
ENTITIES
0
LWPOLYLINE
5
100
100
AcDbEntity
8
0
100
AcDbPolyline
90
4
70
1
43
0.0
10
6
20
0
10
0
20
0
10
0
20
6
10
6
20
6
0
CIRCLE
5
101
100
AcDbEntity
8
0
100
AcDbCircle
10
1.5
20
1.4999999999999989
30
0
40
0.49999999999999994
0
CIRCLE
5
102
100
AcDbEntity
8
0
100
AcDbCircle
10
1.5000000000000004
20
4.5000000000000018
30
0
40
0.49999999999999994
0
CIRCLE
5
103
100
AcDbEntity
8
0
100
AcDbCircle
10
4.5000000000000018
20
4.4999999999999991
30
0
40
0.49999999999999994
0
CIRCLE
5
104
100
AcDbEntity
8
0
100
AcDbCircle
10
4.5000000000000027
20
1.499999999999998
30
0
40
0.49999999999999994
0
CIRCLE
5
105
100
AcDbEntity
8
0
100
AcDbCircle
10
4.5000000000000027
20
2.9999999999999982
30
0
40
0.49999999999999994
0
CIRCLE
5
106
100
AcDbEntity
8
0
100
AcDbCircle
10
1.5
20
3
30
0
40
0.49999999999999994
0
CIRCLE
5
107
100
AcDbEntity
8
0
100
AcDbCircle
10
3
20
17
30
0
40
0.49999999999999994
0
LWPOLYLINE
5
108
100
AcDbEntity
8
0
100
AcDbPolyline
90
4
70
1
43
0.0
10
0
20
19.999999999999993
10
6
20
19.999999999999993
10
6
20
14
10
0
20
14
0
CIRCLE
5
109
100
AcDbEntity
8
0
100
AcDbCircle
10
-3.7500000000000018
20
2.9999999999999982
30
0
40
0.49999999999999994
0
CIRCLE
5
110
100
AcDbEntity
8
0
100
AcDbCircle
10
-2.2500000000000009
20
1.499999999999998
30
0
40
0.49999999999999994
0
CIRCLE
5
111
100
AcDbEntity
8
0
100
AcDbCircle
10
-2.2499999999999987
20
4.4999999999999964
30
0
40
0.49999999999999994
0
LWPOLYLINE
5
112
100
AcDbEntity
8
0
100
AcDbPolyline
90
4
70
1
43
0.0
10
-0.99999999999999956
20
0
10
-6.4999999999999973
20
6.9935308637805131e-16
10
-6.4999999999999991
20
5.9999999999999929
10
-1.0000000000000013
20
5.9999999999999956
0
CIRCLE
5
113
100
AcDbEntity
8
0
100
AcDbCircle
10
-5.25
20
4.4999999999999947
30
0
40
0.49999999999999994
0
CIRCLE
5
114
100
AcDbEntity
8
0
100
AcDbCircle
10
-5.2500000000000009
20
1.4999999999999958
30
0
40
0.49999999999999994
0
CIRCLE
5
115
100
AcDbEntity
8
0
100
AcDbCircle
10
11.249999984042844
20
1.4999999999999993
30
0
40
0.49999999999999994
0
CIRCLE
5
116
100
AcDbEntity
8
0
100
AcDbCircle
10
8.2499999840428515
20
4.5000000000000009
30
0
40
0.49999999999999994
0
CIRCLE
5
117
100
AcDbEntity
8
0
100
AcDbCircle
10
4.5000000000000018
20
-2.5000000000000013
30
0
40
0.49999999999999994
0
CIRCLE
5
118
100
AcDbEntity
8
0
100
AcDbCircle
10
1.5000000000000004
20
-2.4999999999999987
30
0
40
0.49999999999999994
0
LWPOLYLINE
5
119
100
AcDbEntity
8
0
100
AcDbPolyline
90
4
70
1
43
0.0
10
5.5000001755286387
20
-1.5000000000000018
10
0.49999999999999994
20
-1.5000000000000022
10
0.49999999999999978
20
-6.4999999840428524
10
5.5000001755286387
20
-6.4999999840428524
0
CIRCLE
5
120
100
AcDbEntity
8
0
100
AcDbCircle
10
1.5
20
-5.5000000000000036
30
0
40
0.49999999999999994
0
CIRCLE
5
121
100
AcDbEntity
8
0
100
AcDbCircle
10
4.5000000000000027
20
-5.5000000000000036
30
0
40
0.49999999999999994
0
CIRCLE
5
122
100
AcDbEntity
8
0
100
AcDbCircle
10
2.9999999999999902
20
10
30
0
40
0.49999999999999994
0
CIRCLE
5
123
100
AcDbEntity
8
0
100
AcDbCircle
10
4.4999999999999929
20
8.5
30
0
40
0.49999999999999994
0
LWPOLYLINE
5
124
100
AcDbEntity
8
0
100
AcDbPolyline
90
4
70
1
43
0.0
10
5.5000000000000009
20
7.499999824471363
10
5.4999999999999991
20
12.500000000000002
10
0.50000001595714894
20
12.5
10
0.50000001595715038
20
7.4999998244713613
0
CIRCLE
5
125
100
AcDbEntity
8
0
100
AcDbCircle
10
1.4999999999999896
20
11.5
30
0
40
0.49999999999999994
0
LWPOLYLINE
5
126
100
AcDbEntity
8
0
100
AcDbPolyline
90
4
70
1
43
0.0
10
5.75
20
5.75
10
0.24999999999999997
20
5.75
10
0.24999999999999989
20
0.24999999999999989
10
5.75
20
0.24999999999999989
0
LWPOLYLINE
5
127
100
AcDbEntity
8
0
100
AcDbPolyline
90
4
70
1
43
0.0
10
5.7500000000000009
20
19.749999999999996
10
0.25000000000000061
20
19.749999999999996
10
0.25000000000000061
20
14.249999999999998
10
5.7500000000000009
20
14.249999999999998
0
LWPOLYLINE
5
128
100
AcDbEntity
8
0
100
AcDbPolyline
90
4
70
1
43
0.0
10
7.2500000000000018
20
0.2499999999999992
10
7.2500000000000009
20
5.75
10
12.24999998404285
20
5.7500000000000009
10
12.250000159571492
20
0.2499999999999992
0
LWPOLYLINE
5
129
100
AcDbEntity
8
0
100
AcDbPolyline
90
4
70
1
43
0.0
10
6.9999999840428497
20
0
10
6.999999984042848
20
6
10
12.499999984042846
20
6.0000000000000018
10
12.499999984042848
20
0
0
LWPOLYLINE
5
130
100
AcDbEntity
8
0
100
AcDbPolyline
90
4
70
1
43
0.0
10
-6.2499999840428506
20
5.7499999999999964
10
-6.2499999840428506
20
0.2499999999999985
10
-1.2499998244713626
20
0.2499999999999992
10
-1.2499998244713635
20
5.7499999999999991
0
LWPOLYLINE
5
131
100
AcDbEntity
8
0
100
AcDbPolyline
90
4
70
1
43
0.0
10
5.75
20
-1.2499999999999998
10
0.24999999999999997
20
-1.2500000000000002
10
0.24999999999999989
20
-6.7500000000000018
10
5.75
20
-6.7500000000000018
0
LWPOLYLINE
5
132
100
AcDbEntity
8
0
100
AcDbPolyline
90
4
70
1
43
0.0
10
5.7499999999999956
20
7.2500000000000009
10
5.7499999999999956
20
12.750000000000002
10
0.24999999999999639
20
12.750000000000002
10
0.24999999999999781
20
7.2499999999999991
0
LINE
5
133
100
AcDbEntity
8
0
100
AcDbLine
10
5.7499999999999956
20
7.2500000000000009
30
0
11
0.24999999999999781
21
7.2499999999999991
31
0
0
LINE
5
134
100
AcDbEntity
8
0
100
AcDbLine
10
5.5000000000000009
20
7.499999824471363
30
0
11
0.50000001595715038
21
7.4999998244713613
31
0
0
CIRCLE
5
135
100
AcDbEntity
8
0
100
AcDbCircle
10
2.9999999999999902
20
10
30
0
40
0.49999999999999994
0
LINE
5
136
100
AcDbEntity
8
0
100
AcDbLine
10
5.4999999999999991
20
12.500000000000002
30
0
11
5.5000000000000009
21
7.499999824471363
31
0
0
LINE
5
137
100
AcDbEntity
8
0
100
AcDbLine
10
5.7499999999999956
20
12.750000000000002
30
0
11
5.7499999999999956
21
7.2500000000000009
31
0
0
CIRCLE
5
138
100
AcDbEntity
8
0
100
AcDbCircle
10
4.4999999999999929
20
8.5
30
0
40
0.49999999999999994
0
CIRCLE
5
139
100
AcDbEntity
8
0
100
AcDbCircle
10
1.4999999999999896
20
11.5
30
0
40
0.49999999999999994
0
LINE
5
140
100
AcDbEntity
8
0
100
AcDbLine
10
0.50000001595714894
20
12.5
30
0
11
5.4999999999999991
21
12.500000000000002
31
0
0
LINE
5
141
100
AcDbEntity
8
0
100
AcDbLine
10
0.24999999999999639
20
12.750000000000002
30
0
11
5.7499999999999956
21
12.750000000000002
31
0
0
LINE
5
142
100
AcDbEntity
8
0
100
AcDbLine
10
5.7499999999999956
20
7.2500000000000009
30
0
11
0.24999999999999781
21
7.2499999999999991
31
0
0
LINE
5
143
100
AcDbEntity
8
0
100
AcDbLine
10
5.5000000000000009
20
7.499999824471363
30
0
11
0.50000001595715038
21
7.4999998244713613
31
0
0
CIRCLE
5
144
100
AcDbEntity
8
0
100
AcDbCircle
10
2.9999999999999902
20
10
30
0
40
0.49999999999999994
0
LINE
5
145
100
AcDbEntity
8
0
100
AcDbLine
10
5.4999999999999991
20
12.500000000000002
30
0
11
5.5000000000000009
21
7.499999824471363
31
0
0
LINE
5
146
100
AcDbEntity
8
0
100
AcDbLine
10
5.7499999999999956
20
12.750000000000002
30
0
11
5.7499999999999956
21
7.2500000000000009
31
0
0
CIRCLE
5
147
100
AcDbEntity
8
0
100
AcDbCircle
10
4.4999999999999929
20
8.5
30
0
40
0.49999999999999994
0
CIRCLE
5
148
100
AcDbEntity
8
0
100
AcDbCircle
10
1.4999999999999896
20
11.5
30
0
40
0.49999999999999994
0
LINE
5
149
100
AcDbEntity
8
0
100
AcDbLine
10
0.50000001595714894
20
12.5
30
0
11
5.4999999999999991
21
12.500000000000002
31
0
0
LINE
5
150
100
AcDbEntity
8
0
100
AcDbLine
10
0.24999999999999639
20
12.750000000000002
30
0
11
5.7499999999999956
21
12.750000000000002
31
0
0
ENDSEC
0
SECTION
2
OBJECTS
0
DICTIONARY
5
C
100
AcDbDictionary
3
ACAD_GROUP
350
D
3
ACAD_MLINESTYLE
350
17
0
DICTIONARY
5
D
100
AcDbDictionary
0
DICTIONARY
5
1A
330
C
100
AcDbDictionary
0
DICTIONARY
5
17
100
AcDbDictionary
0
ENDSEC
0
EOF
