0
SECTION
2
HEADER
9
$INSUNITS
70
1
9
$ACADVER
1
AC1014
9
$HANDSEED
5
FFFF
0
ENDSEC
0
SECTION
2
TABLES
0
TABLE
2
VPORT
5
8
100
AcDbSymbolTable
0
ENDTAB
0
TABLE
2
LTYPE
5
5
100
AcDbSymbolTable
0
LTYPE
5
14
100
AcDbSymbolTableRecord
100
AcDbLinetypeTableRecord
2
BYBLOCK
70
0
0
LTYPE
5
15
100
AcDbSymbolTableRecord
100
AcDbLinetypeTableRecord
2
BYLAYER
70
0
0
ENDTAB
0
TABLE
2
LAYER
5
2
100
AcDbSymbolTable
70
2
0
LAYER
5
50
100
AcDbSymbolTableRecord
100
AcDbLayerTableRecord
2
0
70
0
6
CONTINUOUS
0
ENDTAB
0
TABLE
2
STYLE
5
3
100
AcDbSymbolTable
70
1
0
STYLE
5
11
100
AcDbSymbolTableRecord
100
AcDbTextStyleTableRecord
2
STANDARD
70
0
0
ENDTAB
0
TABLE
2
VIEW
5
6
100
AcDbSymbolTable
70
0
0
ENDTAB
0
TABLE
2
UCS
5
7
100
AcDbSymbolTable
70
0
0
ENDTAB
0
TABLE
2
APPID
5
9
100
AcDbSymbolTable
70
2
0
APPID
5
12
100
AcDbSymbolTableRecord
100
AcDbRegAppTableRecord
2
ACAD
70
0
0
ENDTAB
0
TABLE
2
DIMSTYLE
5
A
100
AcDbSymbolTable
70
1
0
ENDTAB
0
TABLE
2
BLOCK_RECORD
5
1
100
AcDbSymbolTable
70
1
0
BLOCK_RECORD
5
1F
100
AcDbSymbolTableRecord
100
AcDbBlockTableRecord
2
*MODEL_SPACE
0
BLOCK_RECORD
5
1B
100
AcDbSymbolTableRecord
100
AcDbBlockTableRecord
2
*PAPER_SPACE
0
ENDTAB
0
ENDSEC
0
SECTION
2
BLOCKS
0
BLOCK
5
20
100
AcDbEntity
100
AcDbBlockBegin
2
*MODEL_SPACE
0
ENDBLK
5
21
100
AcDbEntity
100
AcDbBlockEnd
0
BLOCK
5
1C
100
AcDbEntity
100
AcDbBlockBegin
2
*PAPER_SPACE
0
ENDBLK
5
1D
100
AcDbEntity
100
AcDbBlockEnd
0
ENDSEC
0
SECTION
2
ENTITIES
0
LWPOLYLINE
5
100
100
AcDbEntity
8
0
100
AcDbPolyline
90
4
70
1
43
0.0
10
6
20
0
10
0
20
0
10
0
20
6
10
6
20
6
0
CIRCLE
5
101
100
AcDbEntity
8
0
100
AcDbCircle
10
1.5
20
1.4999999999999989
30
0
40
0.49999999999999994
0
CIRCLE
5
102
100
AcDbEntity
8
0
100
AcDbCircle
10
1.5000000000000004
20
4.5000000000000018
30
0
40
0.49999999999999994
0
CIRCLE
5
103
100
AcDbEntity
8
0
100
AcDbCircle
10
4.5000000000000018
20
4.4999999999999991
30
0
40
0.49999999999999994
0
CIRCLE
5
104
100
AcDbEntity
8
0
100
AcDbCircle
10
4.5000000000000027
20
1.499999999999998
30
0
40
0.49999999999999994
0
CIRCLE
5
105
100
AcDbEntity
8
0
100
AcDbCircle
10
4.5000000000000027
20
2.9999999999999982
30
0
40
0.49999999999999994
0
CIRCLE
5
106
100
AcDbEntity
8
0
100
AcDbCircle
10
1.5
20
3
30
0
40
0.49999999999999994
0
CIRCLE
5
107
100
AcDbEntity
8
0
100
AcDbCircle
10
3
20
24
30
0
40
0.49999999999999994
0
LWPOLYLINE
5
108
100
AcDbEntity
8
0
100
AcDbPolyline
90
4
70
1
43
0.0
10
0
20
26.999999999999993
10
6
20
26.999999999999993
10
6
20
21
10
0
20
21
0
CIRCLE
5
109
100
AcDbEntity
8
0
100
AcDbCircle
10
3.0000000000000004
20
9.9999999999999982
30
0
40
0.49999999999999994
0
CIRCLE
5
110
100
AcDbEntity
8
0
100
AcDbCircle
10
4.5000000000000018
20
11.5
30
0
40
0.49999999999999994
0
CIRCLE
5
111
100
AcDbEntity
8
0
100
AcDbCircle
10
1.5000000000000004
20
11.500000000000002
30
0
40
0.49999999999999994
0
LWPOLYLINE
5
112
100
AcDbEntity
8
0
100
AcDbPolyline
90
4
70
1
43
0.0
10
6
20
12.750000000000002
10
5.9999999999999991
20
7.2500000000000009
10
0
20
7.2500000000000009
10
0
20
12.750000000000002
0
CIRCLE
5
113
100
AcDbEntity
8
0
100
AcDbCircle
10
1.5
20
8.5
30
0
40
0.49999999999999994
0
CIRCLE
5
114
100
AcDbEntity
8
0
100
AcDbCircle
10
4.5000000000000027
20
8.4999999999999982
30
0
40
0.49999999999999994
0
CIRCLE
5
115
100
AcDbEntity
8
0
100
AcDbCircle
10
4.5000000000000027
20
32.499999999999993
30
0
40
0.49999999999999994
0
CIRCLE
5
116
100
AcDbEntity
8
0
100
AcDbCircle
10
1.4999999999999993
20
29.5
30
0
40
0.49999999999999994
0
CIRCLE
5
117
100
AcDbEntity
8
0
100
AcDbCircle
10
4.5000000000000018
20
18.5
30
0
40
0.49999999999999994
0
CIRCLE
5
118
100
AcDbEntity
8
0
100
AcDbCircle
10
1.5000000000000004
20
18.500000000000004
30
0
40
0.49999999999999994
0
LWPOLYLINE
5
119
100
AcDbEntity
8
0
100
AcDbPolyline
90
4
70
1
43
0.0
10
5.5000001755286387
20
19.5
10
0.49999999999999994
20
19.5
10
0.49999999999999978
20
14.500000015957148
10
5.5000001755286387
20
14.500000015957148
0
CIRCLE
5
120
100
AcDbEntity
8
0
100
AcDbCircle
10
1.5
20
15.499999999999998
30
0
40
0.49999999999999994
0
CIRCLE
5
121
100
AcDbEntity
8
0
100
AcDbCircle
10
4.5000000000000027
20
15.499999999999998
30
0
40
0.49999999999999994
0
CIRCLE
5
122
100
AcDbEntity
8
0
100
AcDbCircle
10
3
20
37.999999999999993
30
0
40
0.49999999999999994
0
CIRCLE
5
123
100
AcDbEntity
8
0
100
AcDbCircle
10
4.5000000000000027
20
39.499999999999993
30
0
40
0.49999999999999994
0
LWPOLYLINE
5
124
100
AcDbEntity
8
0
100
AcDbPolyline
90
4
70
1
43
0.0
10
5.5000001755286387
20
40.5
10
0.49999999999999978
20
40.5
10
0.49999999999999978
20
35.500000015957148
10
5.5000001755286387
20
35.500000015957148
0
CIRCLE
5
125
100
AcDbEntity
8
0
100
AcDbCircle
10
1.4999999999999993
20
36.499999999999986
30
0
40
0.49999999999999994
0
LWPOLYLINE
5
126
100
AcDbEntity
8
0
100
AcDbPolyline
90
4
70
1
43
0.0
10
5.75
20
5.75
10
0.24999999999999997
20
5.75
10
0.24999999999999989
20
0.24999999999999989
10
5.75
20
0.24999999999999989
0
LWPOLYLINE
5
127
100
AcDbEntity
8
0
100
AcDbPolyline
90
4
70
1
43
0.0
10
5.7500000000000009
20
26.749999999999996
10
0.25000000000000061
20
26.749999999999996
10
0.25000000000000061
20
21.25
10
5.7500000000000009
20
21.25
0
LWPOLYLINE
5
128
100
AcDbEntity
8
0
100
AcDbPolyline
90
4
70
1
43
0.0
10
5.7500000000000009
20
28.500000015957148
10
0.25000000000000061
20
28.500000015957148
10
0.25000000000000061
20
33.5
10
5.7500000000000009
20
33.500000175528641
0
LWPOLYLINE
5
129
100
AcDbEntity
8
0
100
AcDbPolyline
90
4
70
1
43
0.0
10
6
20
28.249999999999996
10
0
20
28.249999999999996
10
0
20
33.749999999999993
10
6
20
33.749999999999993
0
LWPOLYLINE
5
130
100
AcDbEntity
8
0
100
AcDbPolyline
90
4
70
1
43
0.0
10
0.24999999999999989
20
7.5000000159571485
10
5.75
20
7.5000000159571485
10
5.75
20
12.500000175528639
10
0.24999999999999997
20
12.500000175528639
0
LWPOLYLINE
5
131
100
AcDbEntity
8
0
100
AcDbPolyline
90
4
70
1
43
0.0
10
5.75
20
19.75
10
0.24999999999999997
20
19.75
10
0.24999999999999989
20
14.249999999999998
10
5.75
20
14.249999999999998
0
LWPOLYLINE
5
132
100
AcDbEntity
8
0
100
AcDbPolyline
90
4
70
1
43
0.0
10
5.7500000000000009
20
40.749999999999993
10
0.25000000000000061
20
40.749999999999993
10
0.25000000000000061
20
35.249999999999993
10
5.7500000000000009
20
35.249999999999993
0
LINE
5
133
100
AcDbEntity
8
0
100
AcDbLine
10
5.7500000000000009
20
40.749999999999993
30
0
11
5.7500000000000009
21
35.249999999999993
31
0
0
LINE
5
134
100
AcDbEntity
8
0
100
AcDbLine
10
5.5000001755286387
20
40.5
30
0
11
5.5000001755286387
21
35.500000015957148
31
0
0
CIRCLE
5
135
100
AcDbEntity
8
0
100
AcDbCircle
10
3
20
37.999999999999993
30
0
40
0.49999999999999994
0
LINE
5
136
100
AcDbEntity
8
0
100
AcDbLine
10
0.49999999999999978
20
40.5
30
0
11
5.5000001755286387
21
40.5
31
0
0
LINE
5
137
100
AcDbEntity
8
0
100
AcDbLine
10
0.25000000000000061
20
40.749999999999993
30
0
11
5.7500000000000009
21
40.749999999999993
31
0
0
CIRCLE
5
138
100
AcDbEntity
8
0
100
AcDbCircle
10
4.5000000000000027
20
39.499999999999993
30
0
40
0.49999999999999994
0
CIRCLE
5
139
100
AcDbEntity
8
0
100
AcDbCircle
10
1.4999999999999993
20
36.499999999999986
30
0
40
0.49999999999999994
0
LINE
5
140
100
AcDbEntity
8
0
100
AcDbLine
10
0.49999999999999978
20
35.500000015957148
30
0
11
0.49999999999999978
21
40.5
31
0
0
LINE
5
141
100
AcDbEntity
8
0
100
AcDbLine
10
0.25000000000000061
20
35.249999999999993
30
0
11
0.25000000000000061
21
40.749999999999993
31
0
0
LINE
5
142
100
AcDbEntity
8
0
100
AcDbLine
10
5.7500000000000009
20
40.749999999999993
30
0
11
5.7500000000000009
21
35.249999999999993
31
0
0
LINE
5
143
100
AcDbEntity
8
0
100
AcDbLine
10
5.5000001755286387
20
40.5
30
0
11
5.5000001755286387
21
35.500000015957148
31
0
0
CIRCLE
5
144
100
AcDbEntity
8
0
100
AcDbCircle
10
3
20
37.999999999999993
30
0
40
0.49999999999999994
0
LINE
5
145
100
AcDbEntity
8
0
100
AcDbLine
10
0.49999999999999978
20
40.5
30
0
11
5.5000001755286387
21
40.5
31
0
0
LINE
5
146
100
AcDbEntity
8
0
100
AcDbLine
10
0.25000000000000061
20
40.749999999999993
30
0
11
5.7500000000000009
21
40.749999999999993
31
0
0
CIRCLE
5
147
100
AcDbEntity
8
0
100
AcDbCircle
10
4.5000000000000027
20
39.499999999999993
30
0
40
0.49999999999999994
0
CIRCLE
5
148
100
AcDbEntity
8
0
100
AcDbCircle
10
1.4999999999999993
20
36.499999999999986
30
0
40
0.49999999999999994
0
LINE
5
149
100
AcDbEntity
8
0
100
AcDbLine
10
0.49999999999999978
20
35.500000015957148
30
0
11
0.49999999999999978
21
40.5
31
0
0
LINE
5
150
100
AcDbEntity
8
0
100
AcDbLine
10
0.25000000000000061
20
35.249999999999993
30
0
11
0.25000000000000061
21
40.749999999999993
31
0
0
ENDSEC
0
SECTION
2
OBJECTS
0
DICTIONARY
5
C
100
AcDbDictionary
3
ACAD_GROUP
350
D
3
ACAD_MLINESTYLE
350
17
0
DICTIONARY
5
D
100
AcDbDictionary
0
DICTIONARY
5
1A
330
C
100
AcDbDictionary
0
DICTIONARY
5
17
100
AcDbDictionary
0
ENDSEC
0
EOF
